<?xml version="1.0" encoding="utf-8"?>
<!-- Generator: Adobe Illustrator 22.0.0, SVG Export Plug-In . SVG Version: 6.00 Build 0)  -->
<svg version="1.1" id="scroll_icon_1_" xmlns="http://www.w3.org/2000/svg" xmlns:xlink="http://www.w3.org/1999/xlink" x="0px"
	 y="0px" viewBox="0 0 16 31" style="enable-background:new 0 0 16 31;" xml:space="preserve">
<style type="text/css">
	.st0{fill:#7A8F9D;}
</style>
<path id="Fill-1_1_" class="st0" d="M16,7.7C16,3.5,12.5,0,8.2,0H7.8C3.5,0,0,3.5,0,7.7v6.6C0,18.5,3.5,22,7.8,22h0.4
	c4.3,0,7.8-3.5,7.8-7.7V7.7z M14.7,14.3c0,1.8-0.7,3.4-1.9,4.5c-1.2,1.2-2.8,1.9-4.6,1.9H7.8c-1.8,0-3.4-0.7-4.6-1.9
	c-1.2-1.2-1.9-2.8-1.9-4.5V7.7c0-1.8,0.7-3.4,1.9-4.5C4.4,2,6,1.3,7.8,1.3h0.4c1.8,0,3.4,0.7,4.6,1.9c1.2,1.2,1.9,2.8,1.9,4.5V14.3z
	"/>
<path id="Fill-2_1_" class="st0" d="M8,7C7.5,7,7.2,7.5,7.2,8v3c0,0.6,0.4,1,0.8,1c0.5,0,0.8-0.5,0.8-1V8C8.8,7.5,8.5,7,8,7z"/>
<path id="Fill-3_1_" class="st0" d="M7.6,30.9c0.2,0.2,0.6,0.2,0.8,0l3.3-2.7c0.3-0.2,0.3-0.6,0.1-0.9c-0.2-0.3-0.6-0.3-0.9-0.1
	L8,29.5l-2.9-2.3c-0.3-0.2-0.7-0.2-0.9,0.1C3.9,27.5,4,28,4.3,28.2L7.6,30.9z"/>
</svg>
