<svg id="trm" xmlns="http://www.w3.org/2000/svg" viewBox="0 0 156.91 98.53"><defs><style>.cls-1{fill:#444;}.cls-2,.cls-4{fill:none;stroke-linecap:round;stroke-linejoin:round;}.cls-2,.cls-3{stroke:#444;}.cls-3{fill:#e04c4c;stroke-miterlimit:10;}.cls-4{stroke:#a1d1eb;}</style></defs><title>trm-logo</title><polygon class="cls-1" points="29.06 0 29.06 9.29 9.79 9.29 9.79 50.09 0.5 57.36 0.5 0 29.06 0"/><path class="cls-1" d="M163.92,107.8l13.29,24-14.63-7.27-9.26-16.77h-20V98.52h30.9a8.28,8.28,0,0,0,0-14.75h-30.9V74.48h27.19a16.66,16.66,0,0,1,3.21,33Z" transform="translate(-91.04 -74.48)"/><polygon class="cls-1" points="156.41 0 156.41 57.36 147.13 50.09 147.13 18.75 127.93 33.38 108.72 18.75 108.72 50.09 99.43 57.36 99.43 0 127.92 21.71 156.41 0"/><circle class="cls-2" cx="26.63" cy="88.03" r="10.01"/><path class="cls-2" d="M97.32,162.51c-4.53,0-5.78-2.61-5.78-5.24s2.59-4.76,5.78-4.76h5.77" transform="translate(-91.04 -74.48)"/><path class="cls-2" d="M97.32,162.51c4.83,0,5.77,2.24,5.77,5s-2.59,5-5.77,5H91.54" transform="translate(-91.04 -74.48)"/><path class="cls-2" d="M130.31,152.51" transform="translate(-91.04 -74.48)"/><path class="cls-3" d="M130.31,152.51" transform="translate(-91.04 -74.48)"/><line class="cls-2" x1="42.45" y1="78.02" x2="52.4" y2="78.02"/><polyline class="cls-2" points="42.45 98.03 42.45 88.03 52.4 88.03"/><polyline class="cls-2" points="59.36 98.03 59.36 78.02 69.05 78.02"/><line class="cls-2" x1="74.87" y1="78.02" x2="84.57" y2="98.03"/><polyline class="cls-2" points="102.01 78.02 92.31 98.03 82.62 78.02"/><polyline class="cls-2" points="119.81 98.03 110.11 78.02 100.41 98.03"/><line class="cls-2" x1="132.03" y1="88.03" x2="136.88" y2="98.03"/><line class="cls-2" x1="156.41" y1="78.02" x2="144.03" y2="78.02"/><line class="cls-2" x1="156.41" y1="88.03" x2="144.03" y2="88.03"/><line class="cls-2" x1="156.41" y1="97.33" x2="144.03" y2="97.33"/><path class="cls-2" d="M212.49,152.51h11a5,5,0,1,1,0,10" transform="translate(-91.04 -74.48)"/><line class="cls-2" x1="122.42" y1="88.03" x2="132.46" y2="88.03"/><line class="cls-4" x1="0.5" y1="68.03" x2="156.41" y2="68.03"/></svg>