<svg id="trm" xmlns="http://www.w3.org/2000/svg" viewBox="0 0 155.91 57.36"><defs><style>.cls-1{fill:#444;}</style></defs><title>trm</title><polygon class="cls-1" points="28.56 0 28.56 9.29 9.29 9.29 9.29 50.09 0 57.36 0 0 28.56 0"/><path class="cls-1" d="M163.92,128.14l13.29,24-14.63-7.27-9.26-16.77h-20v-9.28h30.9a8.28,8.28,0,0,0,0-14.75h-30.9V94.82h27.19a16.66,16.66,0,0,1,3.21,33Z" transform="translate(-91.54 -94.82)"/><polygon class="cls-1" points="155.91 0 155.91 57.36 146.63 50.09 146.63 18.75 127.43 33.38 108.22 18.75 108.22 50.09 98.93 57.36 98.93 0 127.42 21.71 155.91 0"/></svg>